# xmcd
#
# Track frame offsets:
# 150
# 15356
# 29714
# 46176
# 60940
# 76800
# 92816
# 106874
#
# Disc length: 1604 seconds
#
# Revision: 1
# Processed by: cddbd v1.5.2PL0 Copyright (c) Steve Scherf et al.
# Submitted via: CedeCatalogueitor 2.6.0.6 http://personales.ya.com/cdcatalogueitor
#
DISCID=50064208
DTITLE=Munich^72 - Mil Bits
DYEAR=1900
DGENRE=
TTITLE0=Mil Bits
TTITLE1=Desahogate
TTITLE2=Teletrasnportame
TTITLE3=Electrocucion
TTITLE4=Holograma
TTITLE5=En El Sistema Solar
TTITLE6=Cuando Cies Que No
TTITLE7=Sensación De Ingravidez
EXTD=
EXTT0=
EXTT1=
EXTT2=
EXTT3=
EXTT4=
EXTT5=
EXTT6=
EXTT7=
PLAYORDER=
